<svg width="32" height="32" viewBox="0 0 32 32" fill="none" xmlns="http://www.w3.org/2000/svg">
  <rect width="32" height="32" rx="4" fill="#1F2937"/>
  
  <!-- Career ladder steps -->
  <rect x="6" y="8" width="20" height="2" rx="1" fill="#3B82F6" opacity="0.6"/>
  <rect x="6" y="12" width="20" height="2" rx="1" fill="#3B82F6" opacity="0.7"/>
  <rect x="6" y="16" width="20" height="2" rx="1" fill="#3B82F6" opacity="0.8"/>
  <rect x="6" y="20" width="20" height="2" rx="1" fill="#3B82F6" opacity="0.9"/>
  <rect x="6" y="24" width="20" height="2" rx="1" fill="#3B82F6"/>
  
  <!-- Central briefcase icon -->
  <rect x="11" y="14" width="10" height="8" rx="2" fill="#3B82F6"/>
  <rect x="14" y="12" width="4" height="2" rx="1" fill="#F3F4F6"/>
  
  <!-- Document lines inside briefcase -->
  <rect x="13" y="17" width="6" height="1" rx="0.5" fill="#F3F4F6" opacity="0.8"/>
  <rect x="13" y="19" width="6" height="1" rx="0.5" fill="#F3F4F6" opacity="0.6"/>
  
  <!-- Success arrow -->
  <path d="M4 26 L6 24 L4 22" stroke="#10B981" stroke-width="1.5" fill="none" stroke-linecap="round" stroke-linejoin="round"/>
  <path d="M28 10 L26 8 L28 6" stroke="#10B981" stroke-width="1.5" fill="none" stroke-linecap="round" stroke-linejoin="round"/>
</svg>
