<svg width="180" height="180" viewBox="0 0 180 180" fill="none" xmlns="http://www.w3.org/2000/svg">
  <defs>
    <linearGradient id="grad1" x1="0%" y1="0%" x2="100%" y2="100%">
      <stop offset="0%" style="stop-color:#3B82F6;stop-opacity:1" />
      <stop offset="100%" style="stop-color:#8B5CF6;stop-opacity:1" />
    </linearGradient>
    <linearGradient id="grad2" x1="0%" y1="0%" x2="100%" y2="100%">
      <stop offset="0%" style="stop-color:#1F2937;stop-opacity:1" />
      <stop offset="100%" style="stop-color:#374151;stop-opacity:1" />
    </linearGradient>
  </defs>
  
  <!-- Background -->
  <rect width="180" height="180" rx="40" fill="url(#grad2)"/>
  
  <!-- Career ladder/steps -->
  <rect x="20" y="40" width="140" height="8" rx="4" fill="url(#grad1)" opacity="0.6"/>
  <rect x="20" y="65" width="140" height="8" rx="4" fill="url(#grad1)" opacity="0.7"/>
  <rect x="20" y="90" width="140" height="8" rx="4" fill="url(#grad1)" opacity="0.8"/>
  <rect x="20" y="115" width="140" height="8" rx="4" fill="url(#grad1)" opacity="0.9"/>
  <rect x="20" y="140" width="140" height="8" rx="4" fill="url(#grad1)"/>
  
  <!-- Central briefcase/portfolio icon -->
  <rect x="55" y="70" width="70" height="55" rx="8" fill="url(#grad1)" stroke="#F3F4F6" stroke-width="2"/>
  <rect x="75" y="55" width="30" height="15" rx="4" fill="#F3F4F6"/>
  <rect x="65" y="85" width="50" height="4" rx="2" fill="#F3F4F6" opacity="0.9"/>
  <rect x="65" y="95" width="50" height="4" rx="2" fill="#F3F4F6" opacity="0.7"/>
  <rect x="65" y="105" width="35" height="4" rx="2" fill="#F3F4F6" opacity="0.5"/>
  
  <!-- Success arrows/growth indicators -->
  <path d="M30 130 L40 120 L30 110" stroke="#10B981" stroke-width="6" fill="none" stroke-linecap="round" stroke-linejoin="round"/>
  <path d="M150 50 L140 40 L150 30" stroke="#10B981" stroke-width="6" fill="none" stroke-linecap="round" stroke-linejoin="round"/>
  
  <!-- Small decorative elements -->
  <circle cx="35" cy="55" r="3" fill="#10B981" opacity="0.8"/>
  <circle cx="145" cy="125" r="3" fill="#10B981" opacity="0.6"/>
  <circle cx="40" cy="155" r="2" fill="#3B82F6" opacity="0.7"/>
  <circle cx="140" cy="25" r="2" fill="#8B5CF6" opacity="0.7"/>
</svg>
